# xmcd
#
# Track frame offsets: 
#        150
#        9835
#        22757
#        33328
#        43018
#        54830
#        65429
#        76196
#        87052
#        95940
#        107860
#        120261
#        131481
#        142931
#        157913
#        169902
#        181401
#        191614
#        202932
#        214829
#        228766
#        242647
#        255316
#
# Disc length: 3556 seconds
#
# Revision: 0
# Processed by: cddbd v1.5.2PL0 Copyright (c) Steve Scherf et al.
# Submitted via: ExactAudioCopy v1.0b3
#
DISCID=180de217
DTITLE=Marv Johnson - You Got What It Takes CD1
DYEAR=2014
DGENRE=R&B
TTITLE0=September in the Rain
TTITLE1=You Got What It Takes
TTITLE2=Summertime
TTITLE3=S'Wonderful
TTITLE4=I Can't Get Started
TTITLE5=Come to Me
TTITLE6=Let Me Love You
TTITLE7=Almost Like Being in Love
TTITLE8=Love Is Here to Stay
TTITLE9=I'm Coming Home
TTITLE10=When I Fall in Love
TTITLE11=Don't Leave Me
TTITLE12=Baby Baby
TTITLE13=This Heart of Mine Will Surely Sing
TTITLE14=I Love the Way You Love
TTITLE15=River of Tears
TTITLE16=Clap Your Hands
TTITLE17=Ain't Gonna Be That Way
TTITLE18=When You've Lost Your Love
TTITLE19=I Need You
TTITLE20=Easier Said Than Done
TTITLE21=What a Need
TTITLE22=All the Love I've Got
EXTD=
EXTT0=
EXTT1=
EXTT2=
EXTT3=
EXTT4=
EXTT5=
EXTT6=
EXTT7=
EXTT8=
EXTT9=
EXTT10=
EXTT11=
EXTT12=
EXTT13=
EXTT14=
EXTT15=
EXTT16=
EXTT17=
EXTT18=
EXTT19=
EXTT20=
EXTT21=
EXTT22=
PLAYORDER=
